<svg id="Layer_1" data-name="Layer 1" xmlns="http://www.w3.org/2000/svg" viewBox="0 0 55.62 30.32"><defs><style>.cls-1{fill:#c00;}</style></defs><path class="cls-1" d="M24.78,12.75a1.35,1.35,0,1,1-1.35,1.35,1.35,1.35,0,0,1,1.35-1.35h0m30.57,4.6c-2.12,2.12-8.75,7.93-10.5,12.82l-2.17-.56A24.67,24.67,0,0,1,47.91,22a4.33,4.33,0,0,1-1.46.27A1.83,1.83,0,0,1,45,21.71a1.61,1.61,0,0,1-.32-1,1.47,1.47,0,0,1,0-.28,10.39,10.39,0,0,1-5.42,1.86,3,3,0,0,1-2.86-1.55,13.21,13.21,0,0,1-5.74,1.55,3.59,3.59,0,0,1-3.37-1.74A11.38,11.38,0,0,1,22,22.27a2.57,2.57,0,0,1-1.89-.66,1.86,1.86,0,0,1-.48-1.23,10.33,10.33,0,0,1-5.33,1.89,7.77,7.77,0,0,1-4.52-1.42,11.38,11.38,0,0,1-5.58,1.42c-1.51,0-3.94-.63-3.94-2.79,0-1.74,1.82-2.92,4.25-2.92a9.55,9.55,0,0,1,5.31,1.77,24.49,24.49,0,0,0,3.9-4.13l-1,0C10,14.23,7.62,13.4,6.34,12a4,4,0,0,1-1-2.7c0-3.91,4.94-6.94,9.26-7.39.29.65.54,1.15.81,1.74-4.28.49-7.83,3-7.83,5.49,0,1.63,1.83,3.26,5.7,3.26a13.11,13.11,0,0,0,2-.16c3.42-4.72,8.66-12,13.17-12a1.83,1.83,0,0,1,2,1.89c0,2.24-1.92,4.64-3.17,5.89a20.66,20.66,0,0,1-10.48,5.88,29,29,0,0,1-5.1,5.76,6,6,0,0,0,2.94.83c2.67,0,5.26-2.44,7.28-4.52l.08-.07,1.57,1.24-.07.08c-.89,1-1.72,2.11-1.72,2.72,0,.46.39.55.72.55A10.12,10.12,0,0,0,27,18.6v0C27.15,14,33.41,7,37.21,7c1.07,0,1.68.53,1.68,1.47,0,2.3-4,7.22-9.72,11h0c.29.64,1,.95,2.14.95a11.87,11.87,0,0,0,4.81-1.51,12.24,12.24,0,0,1,3.3-6.74c1.71-1.83,3.63-3,5.29-3a1.43,1.43,0,0,1,1.63,1.45c0,2-2.33,5.43-7.94,9a1.53,1.53,0,0,0,1.48.78c1.67,0,4.61-1.78,6.9-4l1.65,1.28C47.73,18.56,47,19.5,47,20c0,.17.12.29.4.29,1.69,0,4.35-2.23,6.34-4.2l1.57,1.22h0m-36.84-6a17.34,17.34,0,0,0,6.58-4.19C26.7,5.58,28,3.68,28,2.73a.33.33,0,0,0-.35-.34c-.74,0-2.17,1-4.08,2.91a50.23,50.23,0,0,0-5.06,6.07h0M7.94,19.55a6.74,6.74,0,0,0-3.58-1.19c-1.22,0-2,.48-2,1.09s1,1,2,1a8,8,0,0,0,3.57-.89h0m21.2-2.29c3.45-2.61,7.07-6.41,7.46-8a.39.39,0,0,0,0-.15A.18.18,0,0,0,36.43,9c-1.09,0-6.15,4.66-7.29,8.31h0m9.15.41c.32-.23.67-.49,1-.74,2.48-2,4.37-4.16,4.75-5.36a1.07,1.07,0,0,0,0-.24c0-.13-.06-.21-.17-.21-1.14,0-4.79,3.63-5.68,6.58h0l.07,0Z"/></svg>