<?xml version="1.0" encoding="UTF-8"?><svg xmlns="http://www.w3.org/2000/svg" viewBox="0 0 24 24"><g id="a"><path d="M14.58447,11.99996l5.952-5.952c.70595-.70584,.70595-1.85033,0-2.55617-.70584-.70584-1.85033-.70584-2.55617,0l-5.952,5.952L6.0763,3.49179c-.70584-.70584-1.85033-.70584-2.55617,0-.70595,.70584-.70595,1.85033,0,2.55617l5.952,5.952-5.952,5.952c-.70595,.70584-.70595,1.85033,0,2.55617,.70584,.70595,1.85033,.70595,2.55617,0l5.952-5.952,5.952,5.952c.70584,.70595,1.85033,.70595,2.55617,0,.70595-.70584,.70595-1.85033,0-2.55617l-5.952-5.952Z"/></g><g id="b"/></svg>