<?xml version="1.0" encoding="UTF-8" standalone="no"?><!DOCTYPE svg PUBLIC "-//W3C//DTD SVG 1.1//EN" "http://www.w3.org/Graphics/SVG/1.1/DTD/svg11.dtd"><svg width="100%" height="100%" viewBox="0 0 24 24" version="1.1" xmlns="http://www.w3.org/2000/svg" xmlns:xlink="http://www.w3.org/1999/xlink" xml:space="preserve" xmlns:serif="http://www.serif.com/" style="fill-rule:evenodd;clip-rule:evenodd;stroke-linejoin:round;stroke-miterlimit:2;"><rect id="download" x="0" y="0" width="24" height="24" style="fill:none;"/><path d="M23.5,11.998c0.005,1.732 -0.588,3.419 -1.687,4.802c-0.06,0.076 -0.136,0.141 -0.223,0.189c-0.086,0.049 -0.182,0.081 -0.282,0.094c-0.1,0.014 -0.202,0.008 -0.299,-0.016c-0.098,-0.023 -0.189,-0.065 -0.27,-0.123c-0.08,-0.057 -0.148,-0.129 -0.199,-0.211c-0.052,-0.083 -0.085,-0.174 -0.1,-0.268c-0.014,-0.095 -0.008,-0.191 0.017,-0.284c0.025,-0.092 0.069,-0.179 0.13,-0.256c0.899,-1.131 1.384,-2.51 1.38,-3.927c-0,-1.736 -0.727,-3.401 -2.021,-4.629c-1.294,-1.228 -3.049,-1.917 -4.879,-1.917c-1.83,-0 -3.585,0.689 -4.879,1.917c-1.294,1.228 -2.02,2.893 -2.02,4.629c-0,0.193 -0.081,0.378 -0.225,0.515c-0.144,0.136 -0.339,0.213 -0.542,0.213c-0.203,-0 -0.398,-0.077 -0.542,-0.213c-0.144,-0.137 -0.225,-0.322 -0.225,-0.515c-0,-0.734 0.106,-1.464 0.316,-2.171c-0.105,-0.011 -0.21,-0.011 -0.316,-0.011c-1.22,0 -2.39,0.46 -3.252,1.278c-0.863,0.819 -1.347,1.929 -1.347,3.086c-0,1.158 0.484,2.268 1.347,3.086c0.862,0.819 2.032,1.279 3.252,1.279l2.3,-0c0.204,-0 0.399,0.076 0.542,0.213c0.144,0.136 0.225,0.321 0.225,0.514c-0,0.193 -0.081,0.378 -0.225,0.514c-0.143,0.137 -0.338,0.213 -0.542,0.213l-2.3,0c-0.843,0.001 -1.677,-0.164 -2.45,-0.484c-0.773,-0.319 -1.468,-0.786 -2.042,-1.372c-0.574,-0.586 -1.015,-1.278 -1.295,-2.032c-0.279,-0.755 -0.392,-1.556 -0.331,-2.354c0.062,-0.798 0.296,-1.575 0.688,-2.283c0.392,-0.709 0.934,-1.332 1.592,-1.833c0.657,-0.5 1.417,-0.867 2.23,-1.077c0.814,-0.209 1.664,-0.257 2.499,-0.141c0.849,-1.612 2.247,-2.905 3.967,-3.668c1.721,-0.764 3.662,-0.955 5.511,-0.541c1.849,0.413 3.496,1.407 4.675,2.82c1.179,1.413 1.821,3.162 1.822,4.964Zm-6.675,3.85c0.143,-0.137 0.339,-0.213 0.542,-0.213c0.203,-0 0.399,0.076 0.542,0.213c0.144,0.136 0.225,0.321 0.225,0.514c0,0.193 -0.081,0.379 -0.225,0.515l-3.066,2.91c-0.071,0.067 -0.156,0.121 -0.249,0.158c-0.093,0.036 -0.193,0.055 -0.294,0.055c-0.1,-0 -0.2,-0.019 -0.293,-0.055c-0.093,-0.037 -0.178,-0.091 -0.249,-0.158l-3.066,-2.91c-0.144,-0.136 -0.225,-0.322 -0.225,-0.515c-0,-0.193 0.081,-0.378 0.225,-0.514c0.143,-0.137 0.339,-0.213 0.542,-0.213c0.203,-0 0.399,0.076 0.542,0.213l1.758,1.668l-0,-5.518c-0,-0.193 0.081,-0.378 0.224,-0.514c0.144,-0.137 0.339,-0.213 0.542,-0.213c0.204,-0 0.399,0.076 0.543,0.213c0.143,0.136 0.224,0.321 0.224,0.514l0,5.518l1.758,-1.668Z"/></svg>