<?xml version="1.0" encoding="UTF-8"?><svg xmlns="http://www.w3.org/2000/svg" viewBox="0 0 24 13.1"><g id="a"/><g id="b"><path d="M10.68,5.48c.32,0,.59,.26,.59,.59s-.26,.59-.59,.59-.59-.26-.59-.59,.26-.59,.59-.59h0m13.32,2c-.92,.92-3.81,3.45-4.57,5.59l-.95-.24c.54-1.24,1.32-2.36,2.28-3.32-.2,.08-.42,.12-.64,.12-.24,.02-.47-.07-.63-.24-.09-.13-.14-.28-.14-.44,0-.04,0-.08,0-.12-.7,.49-1.51,.77-2.36,.81-.51,.04-1-.22-1.25-.68-.77,.41-1.63,.64-2.5,.68-.59,.05-1.16-.25-1.47-.76-.69,.44-1.49,.69-2.3,.75-.3,.02-.6-.08-.82-.29-.13-.15-.21-.34-.21-.54-.68,.49-1.49,.77-2.32,.82-.7,0-1.39-.21-1.97-.62-.74,.41-1.58,.62-2.43,.62-.66,0-1.72-.27-1.72-1.22,0-.76,.79-1.27,1.85-1.27,.83,.02,1.64,.29,2.31,.77,.63-.53,1.2-1.14,1.7-1.8h-.44c-1.18,.01-2.22-.35-2.78-.96-.29-.32-.44-.74-.44-1.18C2.21,2.28,4.37,.96,6.25,.76c.13,.28,.24,.5,.35,.76-1.86,.21-3.41,1.31-3.41,2.39,0,.71,.8,1.42,2.48,1.42,.29,0,.58-.02,.87-.07C8.03,3.2,10.32,.03,12.28,.03c.44-.04,.83,.28,.87,.72,0,.03,0,.07,0,.1,0,.98-.84,2.02-1.38,2.57-1.23,1.29-2.82,2.18-4.57,2.56-.63,.93-1.37,1.78-2.22,2.51,.39,.23,.83,.35,1.28,.36,1.16,0,2.29-1.06,3.17-1.97l.03-.03,.68,.54-.03,.03c-.39,.44-.75,.92-.75,1.18,0,.2,.17,.24,.31,.24,.71-.11,1.38-.39,1.96-.82h0c.07-2,2.79-5.05,4.45-5.05,.47,0,.73,.23,.73,.64,0,1-1.74,3.15-4.23,4.79h0c.13,.28,.44,.41,.93,.41,.74-.07,1.45-.29,2.1-.66,.16-1.11,.66-2.13,1.44-2.94,.74-.8,1.58-1.31,2.3-1.31,.34-.05,.66,.19,.7,.53,0,.03,0,.07,0,.1,0,.87-1.02,2.37-3.46,3.92,.13,.23,.38,.36,.64,.34,.73,0,2.01-.78,3.01-1.74l.72,.56c-.3,.38-.62,.79-.62,1.01,0,.07,.05,.13,.17,.13,.74,0,1.9-.97,2.76-1.83l.68,.53h0M7.93,4.85c1.08-.38,2.06-1.01,2.87-1.83,.72-.67,1.29-1.5,1.29-1.91,0-.08-.06-.15-.14-.15,0,0,0,0-.01,0-.32,0-.95,.44-1.78,1.27-.8,.82-1.54,1.71-2.2,2.64h0m-4.6,3.56c-.46-.32-1-.5-1.56-.52-.53,0-.87,.21-.87,.47s.44,.44,.87,.44c.54,0,1.07-.14,1.56-.39h0m9.24-1c1.5-1.14,3.08-2.79,3.25-3.49,0-.02,0-.04,0-.07-.01-.03-.04-.05-.07-.05-.47,0-2.68,2.03-3.18,3.62h0m3.99,.18c.14-.1,.29-.21,.44-.32,1.08-.87,1.9-1.81,2.07-2.34,0-.03,0-.07,0-.1,0-.06-.03-.09-.07-.09-.5,0-2.09,1.58-2.47,2.87h.04Z"/></g></svg>