<?xml version="1.0" encoding="UTF-8" standalone="no"?><!DOCTYPE svg PUBLIC "-//W3C//DTD SVG 1.1//EN" "http://www.w3.org/Graphics/SVG/1.1/DTD/svg11.dtd"><svg width="100%" height="100%" viewBox="0 0 304 139" version="1.1" xmlns="http://www.w3.org/2000/svg" xmlns:xlink="http://www.w3.org/1999/xlink" xml:space="preserve" xmlns:serif="http://www.serif.com/" style="fill-rule:evenodd;clip-rule:evenodd;stroke-linejoin:round;stroke-miterlimit:2;"><rect id="lgoo-footer" x="0" y="0" width="304" height="138.432" style="fill:none;"/><g id="lgoo-footer1" serif:id="lgoo-footer"><path d="M106.029,122.822c1.447,0 2.747,0.179 3.905,0.537c1.155,0.358 2.267,0.834 3.335,1.428l-1.734,3.211c-0.762,-0.415 -1.583,-0.778 -2.461,-1.084c-0.878,-0.305 -1.83,-0.458 -2.855,-0.458c-1.609,0 -2.868,0.389 -3.776,1.161c-0.908,0.774 -1.362,1.761 -1.362,2.966c0,1.206 0.48,2.258 1.44,3.023c0.96,0.764 2.245,1.148 3.854,1.148c1.012,-0 1.937,-0.157 2.789,-0.467c0.848,-0.314 1.64,-0.677 2.371,-1.092l1.648,3.21c-0.995,0.564 -2.081,1.036 -3.249,1.416c-1.172,0.38 -2.482,0.567 -3.931,0.567c-1.449,0 -2.751,-0.192 -3.906,-0.581c-1.155,-0.384 -2.132,-0.926 -2.932,-1.616c-0.8,-0.69 -1.41,-1.511 -1.834,-2.463c-0.424,-0.952 -0.636,-1.992 -0.636,-3.123c0,-1.131 0.216,-2.127 0.649,-3.079c0.432,-0.952 1.051,-1.773 1.855,-2.464c0.805,-0.69 1.786,-1.236 2.941,-1.638c1.154,-0.401 2.45,-0.602 3.884,-0.602l0.005,0Zm69.705,0c1.447,0 2.748,0.179 3.906,0.537c1.155,0.358 2.266,0.834 3.335,1.428l-1.735,3.211c-0.761,-0.415 -1.583,-0.778 -2.461,-1.084c-0.878,-0.305 -1.829,-0.458 -2.855,-0.458c-1.609,0 -2.867,0.389 -3.775,1.161c-0.909,0.774 -1.363,1.761 -1.363,2.966c-0,1.206 0.48,2.258 1.44,3.023c0.961,0.764 2.245,1.148 3.854,1.148c1.012,-0 1.938,-0.157 2.79,-0.467c0.848,-0.314 1.639,-0.677 2.37,-1.092l1.648,3.21c-0.995,0.564 -2.08,1.036 -3.248,1.416c-1.172,0.38 -2.483,0.567 -3.932,0.567c-1.449,0 -2.751,-0.192 -3.905,-0.581c-1.155,-0.384 -2.133,-0.926 -2.933,-1.616c-0.8,-0.69 -1.41,-1.511 -1.834,-2.463c-0.424,-0.952 -0.636,-1.992 -0.636,-3.123c-0,-1.131 0.216,-2.127 0.649,-3.079c0.433,-0.952 1.051,-1.773 1.856,-2.464c0.804,-0.69 1.786,-1.236 2.941,-1.638c1.154,-0.401 2.45,-0.602 3.884,-0.602l0.004,0Zm54.957,0.358l8.646,0c2.05,0 3.65,0.463 4.809,1.393c1.155,0.93 1.735,2.18 1.735,3.757c-0,1.576 -0.601,2.917 -1.799,3.848c-1.203,0.93 -2.812,1.393 -4.832,1.393l-4.148,-0l-0,4.459l-4.411,0l0,-14.85Zm4.385,3.319l0,3.796l3.491,0c1.068,0 1.821,-0.17 2.262,-0.516c0.441,-0.34 0.657,-0.803 0.657,-1.384c-0,-0.581 -0.22,-1.022 -0.657,-1.372c-0.441,-0.349 -1.163,-0.524 -2.176,-0.524l-3.577,-0Zm50.35,-3.319l5.198,-0l4.218,6.019l4.24,-6.019l4.918,-0l-7.068,9.408l-0,5.442l-4.435,0l-0,-5.442l-7.071,-9.408Zm-278.116,-0.066l4.831,-0l7.31,14.916l-4.767,0l-1.163,-2.433l-7.903,0l-1.141,2.433l-4.477,0l7.31,-14.916Zm2.262,4.189l-2.548,5.351l5.117,-0l-2.526,-5.351l-0.043,-0Zm16.929,-4.123l6.41,-0l4.524,9.408l0.065,0l4.502,-9.408l6.432,-0l-0,14.85l-4.39,0l-0,-10.592l-0.044,-0l-5.116,10.592l-3.227,0l-5.117,-10.592l-0.043,-0l0,10.592l-3.996,0l-0,-14.85Zm25.557,-0l14.646,-0l-0,3.324l-10.32,-0l-0,2.476l7.815,-0l0,3.079l-7.815,-0l-0,2.656l10.32,-0l-0,3.324l-14.646,-0l0,-14.859Zm17.673,-0l7.487,-0c1.505,-0 2.838,0.174 3.984,0.524c1.15,0.349 2.102,0.839 2.863,1.472c0.761,0.633 1.332,1.402 1.713,2.306c0.381,0.904 0.571,1.918 0.571,3.031c-0,1.114 -0.19,2.158 -0.571,3.088c-0.381,0.931 -0.952,1.721 -1.713,2.376c-0.761,0.656 -1.717,1.158 -2.863,1.516c-1.151,0.358 -2.479,0.537 -3.984,0.537l-7.487,-0l0,-14.85Zm4.412,3.481l0,7.888l2.941,-0c1.566,-0 2.764,-0.345 3.599,-1.035c0.834,-0.69 1.25,-1.66 1.25,-2.909c-0,-1.249 -0.416,-2.219 -1.25,-2.909c-0.835,-0.69 -2.033,-1.035 -3.599,-1.035l-2.941,-0Zm15.173,-3.481l4.412,-0l-0,14.85l-4.412,-0l0,-14.85Zm26.76,-0l4.412,-0l-0,14.85l-4.412,-0l-0,-14.85Zm8.188,-0l4.394,-0l8.21,8.962l0.043,-0l-0,-8.962l4.083,-0l-0,14.85l-4.369,-0l-8.235,-9.185l-0.043,-0l-0,9.185l-4.083,-0l-0,-14.85Zm20.354,-0l14.646,-0l-0,3.324l-10.32,-0l-0,2.476l7.815,-0l-0,3.079l-7.815,-0l-0,2.656l10.32,-0l-0,3.324l-14.646,-0l-0,-14.859Zm48.633,-0.402c1.363,-0 2.604,0.188 3.72,0.568c1.12,0.38 2.076,0.913 2.863,1.594c0.792,0.686 1.402,1.507 1.834,2.477c0.433,0.965 0.649,2.031 0.649,3.188c-0,1.158 -0.216,2.223 -0.649,3.189c-0.432,0.965 -1.042,1.79 -1.834,2.476c-0.791,0.686 -1.747,1.214 -2.863,1.594c-1.12,0.38 -2.362,0.568 -3.72,0.568c-1.358,-0 -2.577,-0.188 -3.689,-0.568c-1.112,-0.38 -2.063,-0.908 -2.855,-1.594c-0.791,-0.686 -1.401,-1.507 -1.834,-2.476c-0.432,-0.966 -0.648,-2.031 -0.648,-3.189c-0,-1.157 0.216,-2.223 0.648,-3.188c0.433,-0.966 1.043,-1.791 1.834,-2.477c0.792,-0.686 1.743,-1.214 2.855,-1.594c1.112,-0.38 2.34,-0.568 3.689,-0.568Zm-0,3.433c-0.644,-0 -1.245,0.1 -1.799,0.301c-0.558,0.201 -1.038,0.49 -1.449,0.857c-0.411,0.371 -0.735,0.83 -0.977,1.371c-0.243,0.541 -0.364,1.162 -0.364,1.861c-0,0.699 0.121,1.301 0.364,1.852c0.242,0.55 0.566,1.009 0.977,1.384c0.411,0.372 0.891,0.66 1.449,0.861c0.558,0.2 1.155,0.301 1.799,0.301c0.645,-0 1.25,-0.101 1.813,-0.301c0.562,-0.201 1.055,-0.485 1.47,-0.861c0.415,-0.371 0.748,-0.834 0.986,-1.384c0.238,-0.551 0.364,-1.167 0.364,-1.852c-0,-0.686 -0.121,-1.32 -0.364,-1.861c-0.242,-0.541 -0.571,-1 -0.986,-1.371c-0.415,-0.372 -0.908,-0.66 -1.47,-0.857c-0.563,-0.201 -1.168,-0.301 -1.813,-0.301Zm11.877,-3.031l6.41,-0l4.525,9.408l0.064,-0l4.503,-9.408l6.432,-0l-0,14.85l-4.39,-0l-0,-10.592l-0.044,-0l-5.116,10.592l-3.227,-0l-5.117,-10.592l-0.043,-0l-0,10.592l-3.997,-0l-0,-14.85Zm47.483,-0.066l4.84,-0l7.309,14.916l-4.766,-0l-1.164,-2.433l-7.906,-0l-1.142,2.433l-4.481,-0l7.31,-14.916Zm2.271,4.189l-2.548,5.351l5.117,-0l-2.526,-5.351l-0.043,-0Zm12.002,-4.123l4.395,-0l8.209,8.962l0.043,-0l0,-8.962l4.082,-0l-0,14.85l-4.367,-0l-8.236,-9.185l-0.043,-0l-0,9.185l-4.083,-0l0,-14.85Zm-214.25,-26.644l-0,-0.005c-6.501,0 -16.986,-2.734 -16.986,-12.146c0,-7.604 7.851,-12.754 18.348,-12.754c8.927,0 17.535,3.8 22.932,7.748c5.126,-4.123 10.498,-9.892 16.843,-18.043c-1.393,0.083 -2.759,0.122 -4.096,0.122c-12.15,0 -22.288,-3.62 -27.824,-9.949c-2.989,-3.429 -4.403,-7.443 -4.403,-11.758c-0,-17.078 21.34,-30.321 40.004,-32.269c1.237,2.826 2.335,5.001 3.477,7.591c-18.443,2.162 -33.801,13.191 -33.801,23.97c-0,7.089 7.88,14.2 24.61,14.2c2.859,-0 5.744,-0.28 8.577,-0.673c14.766,-20.589 37.392,-52.57 56.86,-52.57c5.761,-0 8.771,3.538 8.771,8.273c0,9.74 -8.287,20.218 -13.681,25.686c-8.49,8.613 -23.832,21.428 -45.263,25.674c-8.339,11.723 -15.19,19.497 -22.042,25.106c4.157,2.266 8.045,3.651 12.691,3.651c11.539,0 22.725,-10.67 31.466,-19.716l0.307,-0.301l6.821,5.381l-0.32,0.38c-3.858,4.477 -7.423,9.207 -7.423,11.858c0,2.014 1.683,2.411 3.128,2.411c4.42,0 11.224,-2.883 19.238,-7.871l0,-0.061c0.887,-20.004 27.911,-50.604 44.312,-50.604c4.633,-0 7.288,2.323 7.288,6.411c-0,10.029 -17.123,31.536 -42.024,47.989l-0,0.013c1.285,2.8 4.248,4.149 9.287,4.149c3.931,0 11.613,-1.76 20.748,-6.59c1.059,-10.365 6.873,-21.499 14.238,-29.426c7.401,-7.945 15.692,-13.112 22.859,-13.112c4.421,-0 7.029,2.459 7.029,6.32c0,8.749 -10.052,23.708 -34.265,39.362c1.082,2.101 3.158,3.424 6.389,3.424c7.214,0 19.913,-7.774 29.809,-17.335l7.107,5.582c-3.037,3.717 -6.103,7.805 -6.008,10.159c0.03,0.765 0.54,1.276 1.73,1.276c7.297,-0 18.776,-9.732 27.387,-18.323l6.787,5.329c-6.925,6.966 -24.901,23.114 -36.566,39.79l-11.051,-0c4.213,-6.534 9.671,-13.509 15.463,-19.485c-2.185,0.835 -4.468,1.14 -6.302,1.14c-2.777,0 -4.939,-0.847 -6.241,-2.441c-0.93,-1.149 -1.406,-2.643 -1.406,-4.42c0,-0.385 0.03,-0.769 0.082,-1.21c-9.035,5.56 -16.302,8.067 -23.412,8.067c-5.537,-0 -10.204,-2.442 -12.353,-6.713c-8.966,4.494 -17.569,6.713 -24.753,6.713c-6.692,-0 -12.09,-2.677 -14.559,-7.556c-9.07,5.154 -16.778,7.556 -22.915,7.556c-3.53,-0 -6.333,-0.987 -8.136,-2.861c-1.319,-1.376 -2.02,-3.232 -2.115,-5.381c-5.813,3.87 -14.109,8.242 -23.01,8.242c-8.902,-0 -14.875,-3.084 -19.511,-6.15c-7.388,4.136 -15.524,6.15 -24.122,6.15Zm139.181,-58.109c-4.714,0 -26.565,20.367 -31.509,36.248c14.905,-11.378 30.575,-27.945 32.245,-34.75c0.047,-0.218 0.103,-0.441 0.095,-0.646c-0.026,-0.45 -0.269,-0.852 -0.831,-0.852Zm7.742,38.174l0.005,0l0,0.049l0.281,-0.149c1.38,-0.996 2.868,-2.153 4.26,-3.263c10.705,-8.652 18.889,-18.139 20.506,-23.393c0.056,-0.166 0.195,-0.651 0.195,-1.04c0,-0.546 -0.255,-0.922 -0.744,-0.922c-4.914,0 -20.688,15.864 -24.503,28.718Zm-146.257,2.909l-0,0.005c-5.273,-0 -8.646,2.092 -8.646,4.739c-0,3.027 4.1,4.355 8.68,4.355c5.554,-0 10.601,-1.521 15.433,-3.927c-3.94,-2.76 -10.026,-5.172 -15.467,-5.172Zm82.962,-57.016c-6.432,6.517 -13.927,15.414 -21.825,26.481c10.683,-3.459 20.826,-10.696 28.386,-18.261c6.99,-6.997 12.587,-15.3 12.587,-19.41c0,-0.944 -0.666,-1.512 -1.51,-1.512c-3.235,0 -9.372,4.342 -17.638,12.702Zm5.251,32.531c3.222,-0 5.822,2.642 5.822,5.892c0,3.249 -2.6,5.892 -5.822,5.892c-3.222,-0 -5.839,-2.638 -5.839,-5.892c0,-3.254 2.608,-5.892 5.839,-5.892Z"/></g></svg>