<?xml version="1.0" encoding="UTF-8"?><svg xmlns="http://www.w3.org/2000/svg" viewBox="0 0 24 24"><defs><style>.c{fill-rule:evenodd;}</style></defs><g id="a"/><g id="b"><path class="c" d="M2.06332,12.6609c.32381,4.97664,4.29914,8.95198,9.27579,9.28243v.01993h1.32179v-.01993c4.97664-.33045,8.95198-4.30578,9.28243-9.28243h.01993v-1.32179h-.01993c-.33045-4.97664-4.30578-8.95198-9.28243-9.27579v-.02657h-1.32179v.02657C6.36246,2.38712,2.38712,6.36246,2.06332,11.3391h-.02657v1.32179h.02657Zm13.65962,7.12871c.64263-.84854,1.18065-1.91959,1.56423-3.13842h1.99099c-.86348,1.34836-2.0956,2.44432-3.55522,3.13842Zm4.24933-4.46852h-2.33472c.181-.83691,.29059-1.73195,.33045-2.66019h2.64026c-.0714,.94153-.29226,1.82992-.63599,2.66019Zm.63599-3.98198h-2.64026c-.03985-.92824-.14945-1.82327-.33045-2.66019h2.33472c.34373,.83027,.56458,1.71866,.63599,2.66019Zm-1.33009-3.99028h-1.98435c-.39023-1.21884-.9216-2.28989-1.57087-3.13842,1.45962,.69411,2.69174,1.79006,3.55522,3.13842Zm-6.61726-3.89729c1.36995,.362,2.54395,1.82826,3.25632,3.89729h-3.25632V3.45153Zm0,5.22739h3.63327c.18764,.83027,.30554,1.71866,.34373,2.66019h-3.977v-2.66019Zm0,3.98198h3.977c-.03819,.94153-.15609,1.82992-.34373,2.66019h-3.63327v-2.66019Zm0,3.99028h3.25632c-.71237,2.06904-1.88638,3.53529-3.25632,3.89729v-3.89729Zm-7.93905,0h1.98435c.39023,1.21884,.9216,2.28989,1.57087,3.13842-1.45962-.69411-2.69174-1.79006-3.55522-3.13842Zm6.61726,3.89729c-1.36995-.362-2.54395-1.82826-3.25632-3.89729h3.25632v3.89729Zm0-5.22739h-3.63327c-.18764-.83027-.2989-1.71866-.34373-2.66019h3.977v2.66019Zm0-3.98198h-3.977c.03819-.94153,.15609-1.82992,.34373-2.66019h3.63327v2.66019Zm0-7.88757v3.89729h-3.25632c.71237-2.06903,1.88638-3.53529,3.25632-3.89729Zm-3.06204,.75887c-.64263,.85518-1.18065,1.91959-1.57087,3.13842h-1.98435c.86348-1.34836,2.0956-2.44432,3.55522-3.13842Zm-4.24933,4.46852h2.33472c-.181,.83691-.2906,1.73195-.33045,2.66019H3.39175c.0714-.94153,.29226-1.82992,.63599-2.66019Zm2.00427,3.98198c.03985,.92824,.14945,1.82327,.33045,2.66019h-2.33472c-.34373-.83027-.56458-1.71866-.63599-2.66019h2.64026Z"/></g></svg>