<svg width="100%" height="100%" viewBox="0 0 24 25" version="1.1" xmlns="http://www.w3.org/2000/svg" xmlns:xlink="http://www.w3.org/1999/xlink" xml:space="preserve" xmlns:serif="http://www.serif.com/" style="fill-rule:evenodd;clip-rule:evenodd;stroke-linejoin:round;stroke-miterlimit:2;"><rect id="search" x="0" y="0.319" width="24" height="24" style="fill:none;"/><path d="M16.018,17.628c-1.532,1.247 -3.486,1.995 -5.616,1.995c-4.916,0 -8.902,-3.986 -8.902,-8.902c-0,-4.917 3.986,-8.902 8.902,-8.902c4.917,-0 8.902,3.985 8.902,8.902c0,2.129 -0.747,4.084 -1.994,5.616l4.923,4.923c0.356,0.357 0.356,0.935 -0,1.291c-0.357,0.357 -0.935,0.357 -1.291,0l-4.924,-4.923Zm-0.612,-1.903c1.28,-1.281 2.072,-3.05 2.072,-5.004c0,-3.908 -3.168,-7.076 -7.076,-7.076c-3.908,-0 -7.076,3.168 -7.076,7.076c0,3.908 3.168,7.076 7.076,7.076c1.954,-0 3.723,-0.792 5.004,-2.072Z"/></svg>
